<svg width="390" height="141" viewBox="0 0 390 141" fill="none" xmlns="http://www.w3.org/2000/svg">
    <path d="M154.986 140.232V88.558l29.052-11.526 29.052 11.526v51.674h-58.104zm133.198 0v-86.83l19.843-19.785 19.714 19.786v86.829h-39.557z" fill="#332C5A" fill-opacity=".5"/>
    <path fill-rule="evenodd" clip-rule="evenodd" d="M138.645 13.832v126.4h-34.759v-126.4h34.759z" fill="#332C5A" fill-opacity=".5"/>
    <path d="M253.426 140.232v-126.4h12.839c12.062 0 21.919 14.598 21.919 32.463v93.937h-34.758z" fill="#332C5A" fill-opacity=".5"/>
    <path fill-rule="evenodd" clip-rule="evenodd" d="M235.786 105.462V141H166.01v-35.538h69.776z" fill="#332C5A"/>
    <path fill-rule="evenodd" clip-rule="evenodd" d="M228.783 72.806v35.537H204.79V72.806h23.993zM56.418 0v140.041H0V0h56.418z" fill="#332C5A"/>
    <path d="M56.418 140.232v-59.55L112.705 48.6v91.632H56.418zm76.78 0V59.551L149.67 41.3l16.47 18.25v80.681h-32.942zm146.815 0V96.434l12.581-9.797 12.58 9.797v43.798h-25.161zm34.239-112.953v-4.036l17.509-9.99 17.509 9.99v4.033h-35.018v.003z" fill="#332C5A"/>
    <path fill-rule="evenodd" clip-rule="evenodd" d="M261.985 24.973v115.451h-26.328V24.973h26.328z" fill="#332C5A"/>
    <path fill-rule="evenodd" clip-rule="evenodd" d="M257.517 0v79.807H240.94V0h16.577zM391.5 50.413v89.628l-42.42.584V47.672l42.42 2.74z" fill="#332C5A"/>
    <path fill-rule="evenodd" clip-rule="evenodd" d="M349.319 50.413v90.212h-34.932V50.413h34.932z" fill="#332C5A"/>
    <path fill-rule="evenodd" clip-rule="evenodd" d="M324.921 27.86v112.765h-7.847V27.86h7.847zm21.71 0v112.765h-7.847V27.86h7.847z" fill="#332C5A"/>
</svg>
