<svg width="1350" height="152" viewBox="0 0 1350 152" fill="none" xmlns="http://www.w3.org/2000/svg">
    <path d="M154.986 151.172V95.466l29.052-12.425 29.052 12.425v55.706h-58.104zm133.198 0V57.569l19.843-21.33 19.714 21.33v93.603h-39.557z" fill="#332C5A" fill-opacity=".5"/>
    <path fill-rule="evenodd" clip-rule="evenodd" d="M138.645 14.91v136.262h-34.759V14.911h34.759z" fill="#332C5A" fill-opacity=".5"/>
    <path d="M253.426 151.172V14.911h12.839c12.062 0 21.919 15.737 21.919 34.995v101.266h-34.759.001z" fill="#332C5A" fill-opacity=".5"/>
    <path fill-rule="evenodd" clip-rule="evenodd" d="M235.786 113.689V152H166.01v-38.311h69.776z" fill="#332C5A"/>
    <path fill-rule="evenodd" clip-rule="evenodd" d="M228.783 78.486v38.31H204.79v-38.31h23.993zM56.418 0v150.966H0V0h56.418z" fill="#332C5A"/>
    <path d="M56.418 151.172V86.976l56.287-34.584v98.78H56.418zm76.78 0V64.196l16.472-19.673 16.47 19.673v86.976h-32.943.001zm146.815 0v-47.215l12.581-10.561 12.58 10.561v47.215h-25.161zm34.239-121.765v-4.35l17.509-10.77 17.509 10.77v4.347h-35.018v.003z" fill="#332C5A"/>
    <path fill-rule="evenodd" clip-rule="evenodd" d="M261.985 26.921v124.458h-26.328V26.921h26.328z" fill="#332C5A"/>
    <path fill-rule="evenodd" clip-rule="evenodd" d="M257.517 0v86.033H240.94V0h16.577zm228.842 51.39v100.205H349.08V51.391h137.279z" fill="#332C5A"/>
    <path fill-rule="evenodd" clip-rule="evenodd" d="M349.319 54.346v97.249h-34.932v-97.25h34.932z" fill="#332C5A"/>
    <path fill-rule="evenodd" clip-rule="evenodd" d="M324.921 30.033v121.562h-7.847V30.033h7.847zm21.71 0v121.562h-7.847V30.033h7.847z" fill="#332C5A"/>
    <path d="M587.987 151.172V95.466l29.052-12.425 29.052 12.425v55.706h-58.104zm133.198 0V57.569l19.843-21.33 19.714 21.33v93.603h-39.557z" fill="#332C5A" fill-opacity=".5"/>
    <path fill-rule="evenodd" clip-rule="evenodd" d="M571.646 14.91v136.262h-34.759V14.911h34.759z" fill="#332C5A" fill-opacity=".5"/>
    <path d="M686.427 151.172V14.911h12.839c12.062 0 21.919 15.737 21.919 34.995v101.266h-34.759.001z" fill="#332C5A" fill-opacity=".5"/>
    <path fill-rule="evenodd" clip-rule="evenodd" d="M668.787 113.689V152h-69.775v-38.311h69.775z" fill="#332C5A"/>
    <path fill-rule="evenodd" clip-rule="evenodd" d="M661.784 78.486v38.31h-23.993v-38.31h23.993zM489.419 0v150.966h-56.418V0h56.418z" fill="#332C5A"/>
    <path d="M489.419 151.172V86.976l56.287-34.584v98.78h-56.287zm76.78 0V64.196l16.472-19.673 16.47 19.673v86.976h-32.943.001zm146.815 0v-47.215l12.581-10.561 12.58 10.561v47.215h-25.161zm34.239-121.765v-4.35l17.509-10.77 17.509 10.77v4.347h-35.018v.003z" fill="#332C5A"/>
    <path fill-rule="evenodd" clip-rule="evenodd" d="M694.986 26.921v124.458h-26.328V26.921h26.328z" fill="#332C5A"/>
    <path fill-rule="evenodd" clip-rule="evenodd" d="M690.518 0v86.033h-16.577V0h16.577zM919.36 51.39v100.205H782.081V51.391H919.36z" fill="#332C5A"/>
    <path fill-rule="evenodd" clip-rule="evenodd" d="M782.32 54.346v97.249h-34.932v-97.25h34.932z" fill="#332C5A"/>
    <path fill-rule="evenodd" clip-rule="evenodd" d="M757.922 30.033v121.562h-7.847V30.033h7.847zm21.71 0v121.562h-7.847V30.033h7.847z" fill="#332C5A"/>
    <path d="M1018.63 151.172V95.466l29.05-12.425 29.05 12.425v55.706h-58.1zm133.2 0V57.569l19.84-21.33 19.71 21.33v93.603h-39.55z" fill="#332C5A" fill-opacity=".5"/>
    <path fill-rule="evenodd" clip-rule="evenodd" d="M1002.29 14.91v136.262h-34.762V14.911h34.762z" fill="#332C5A" fill-opacity=".5"/>
    <path d="M1117.07 151.172V14.911h12.84c12.06 0 21.92 15.737 21.92 34.995v101.266h-34.76z" fill="#332C5A" fill-opacity=".5"/>
    <path fill-rule="evenodd" clip-rule="evenodd" d="M1099.43 113.689V152h-69.78v-38.311h69.78z" fill="#332C5A"/>
    <path fill-rule="evenodd" clip-rule="evenodd" d="M1092.42 78.486v38.31h-23.99v-38.31h23.99zM920.059 0v150.966h-56.418V0h56.418z" fill="#332C5A"/>
    <path d="M920.059 151.172V86.976l56.288-34.584v98.78h-56.288zm76.78 0V64.196l16.471-19.673 16.47 19.673v86.976h-32.942.001zm146.811 0v-47.215l12.58-10.561 12.58 10.561v47.215h-25.16zm34.24-121.765v-4.35l17.51-10.77 17.51 10.77v4.347h-35.02v.003z" fill="#332C5A"/>
    <path fill-rule="evenodd" clip-rule="evenodd" d="M1125.63 26.921v124.458h-26.33V26.921h26.33z" fill="#332C5A"/>
    <path fill-rule="evenodd" clip-rule="evenodd" d="M1121.16 0v86.033h-16.58V0h16.58zM1350 51.39v100.205h-137.28V51.391H1350z" fill="#332C5A"/>
    <path fill-rule="evenodd" clip-rule="evenodd" d="M1212.96 54.346v97.249h-34.93v-97.25h34.93z" fill="#332C5A"/>
    <path fill-rule="evenodd" clip-rule="evenodd" d="M1188.56 30.033v121.562h-7.85V30.033h7.85zm21.71 0v121.562h-7.84V30.033h7.84z" fill="#332C5A"/>
</svg>
