<svg width="390" height="141" viewBox="0 0 390 141" fill="none" xmlns="http://www.w3.org/2000/svg">
    <path d="M154.393 140.232V88.558l28.94-11.526 28.94 11.526v51.674h-57.88zm132.687 0v-86.83l19.767-19.785 19.639 19.786v86.829H287.08z" fill="#332C5A" fill-opacity=".5"/>
    <path fill-rule="evenodd" clip-rule="evenodd" d="M138.113 13.832v126.4h-34.625v-126.4h34.625z" fill="#332C5A" fill-opacity=".5"/>
    <path d="M252.455 140.232v-126.4h12.79c12.016 0 21.835 14.598 21.835 32.463v93.937h-34.625z" fill="#332C5A" fill-opacity=".5"/>
    <path fill-rule="evenodd" clip-rule="evenodd" d="M234.883 105.462V141h-69.509v-35.538h69.509z" fill="#332C5A"/>
    <path fill-rule="evenodd" clip-rule="evenodd" d="M227.906 72.806v35.537h-23.9V72.806h23.9zM56.202 0v140.041H0V0h56.202z" fill="#332C5A"/>
    <path d="M56.202 140.232v-59.55L112.274 48.6v91.632H56.202zm76.486 0V59.551l16.408-18.25 16.408 18.25v80.681h-32.816zm146.252 0V96.434l12.533-9.797 12.531 9.797v43.798H278.94zm34.108-112.953v-4.036l17.442-9.99 17.442 9.99v4.033h-34.884v.003z" fill="#332C5A"/>
    <path fill-rule="evenodd" clip-rule="evenodd" d="M260.982 24.973v115.451h-26.227V24.973h26.227z" fill="#332C5A"/>
    <path fill-rule="evenodd" clip-rule="evenodd" d="M256.53 0v79.807h-16.513V0h16.513zM390 50.413v89.628l-42.258.584V47.672L390 50.412z" fill="#332C5A"/>
    <path fill-rule="evenodd" clip-rule="evenodd" d="M347.98 50.413v90.212h-34.798V50.413h34.798z" fill="#332C5A"/>
    <path fill-rule="evenodd" clip-rule="evenodd" d="M323.676 27.86v112.765h-7.817V27.86h7.817zm21.626 0v112.765h-7.816V27.86h7.816z" fill="#332C5A"/>
    <path d="m151.944 117-4.3-12.52h-.092a88.826 88.826 0 0 1 .143 2.707c.02.554.03 1.084.03 1.589V117h-2.227v-14.991h3.443l4.137 11.966h.061l4.28-11.966h3.432V117h-2.339v-8.347c0-.458.007-.953.02-1.486.021-.534.041-1.04.062-1.518.027-.479.047-.861.061-1.149h-.082l-4.464 12.5h-2.165zM168.972 105.434c1.43 0 2.509.317 3.238.953.735.636 1.103 1.627 1.103 2.974V117h-1.706l-.46-1.61h-.081c-.32.41-.651.749-.991 1.015a3.46 3.46 0 0 1-1.185.595c-.443.137-.984.205-1.624.205-.674 0-1.277-.123-1.808-.369a2.886 2.886 0 0 1-1.257-1.148c-.306-.513-.459-1.163-.459-1.949 0-1.169.432-2.047 1.297-2.635.872-.588 2.186-.913 3.943-.974l1.961-.072v-.595c0-.786-.184-1.346-.551-1.681-.361-.335-.872-.503-1.533-.503a5.54 5.54 0 0 0-1.644.246c-.531.164-1.049.366-1.553.605l-.776-1.702a8.698 8.698 0 0 1 1.879-.718 8.747 8.747 0 0 1 2.207-.276zm1.961 6.142-1.461.051c-1.198.041-2.039.246-2.523.615-.483.369-.725.875-.725 1.518 0 .56.167.97.5 1.23.334.253.773.38 1.318.38.831 0 1.519-.236 2.064-.708.551-.478.827-1.179.827-2.102v-.984zM182.567 105.434c1.274 0 2.265.331 2.973.994.715.656 1.072 1.713 1.072 3.169V117h-2.4v-6.952c0-.882-.181-1.542-.541-1.979-.361-.444-.92-.667-1.676-.667-1.096 0-1.859.339-2.288 1.015-.422.677-.633 1.658-.633 2.943V117h-2.4v-11.351h1.869l.337 1.538h.133c.245-.396.548-.721.909-.974.367-.26.776-.455 1.226-.585a5.188 5.188 0 0 1 1.419-.194zM192.373 105.649V117h-2.4v-11.351h2.4zm-1.185-4.348c.368 0 .685.099.95.298.273.198.409.54.409 1.025 0 .479-.136.82-.409 1.025a1.537 1.537 0 0 1-.95.298c-.381 0-.704-.099-.97-.298-.259-.205-.388-.546-.388-1.025 0-.485.129-.827.388-1.025.266-.199.589-.298.97-.298zM201.464 107.484h-2.747V117h-2.401v-9.516h-1.849v-1.158l1.849-.708v-.789c0-.964.15-1.73.45-2.297a2.662 2.662 0 0 1 1.307-1.22c.572-.253 1.253-.38 2.043-.38.518 0 .991.045 1.42.133.429.082.79.178 1.083.288l-.623 1.825a7.87 7.87 0 0 0-.777-.205 3.908 3.908 0 0 0-.919-.103c-.545 0-.947.171-1.205.513-.252.342-.378.841-.378 1.497v.769h2.747v1.835zM207.9 105.434c1.007 0 1.872.208 2.594.625a4.18 4.18 0 0 1 1.665 1.774c.388.766.582 1.682.582 2.748v1.292h-7.548c.027 1.101.32 1.948.878 2.543.565.595 1.355.892 2.37.892a8.36 8.36 0 0 0 1.941-.205 10.819 10.819 0 0 0 1.787-.625v1.958a7.813 7.813 0 0 1-1.726.585c-.586.123-1.287.184-2.104.184-1.11 0-2.087-.215-2.932-.646-.837-.437-1.495-1.087-1.971-1.948-.47-.861-.705-1.931-.705-3.21 0-1.271.215-2.351.644-3.24.429-.889 1.031-1.565 1.808-2.03.776-.465 1.682-.697 2.717-.697zm0 1.815c-.756 0-1.369.246-1.839.738-.463.492-.735 1.213-.817 2.163h5.148c-.007-.567-.102-1.069-.286-1.507a2.183 2.183 0 0 0-.817-1.025c-.361-.246-.824-.369-1.389-.369zM223.048 113.76c0 .745-.181 1.374-.541 1.886-.361.513-.889.903-1.584 1.169-.688.26-1.532.39-2.533.39-.79 0-1.471-.058-2.043-.174a7.038 7.038 0 0 1-1.604-.513v-2.081a11.53 11.53 0 0 0 1.808.656 7.275 7.275 0 0 0 1.911.277c.789 0 1.358-.123 1.705-.37a1.18 1.18 0 0 0 .521-1.004 1.07 1.07 0 0 0-.214-.657c-.136-.198-.395-.4-.777-.605-.374-.212-.926-.464-1.654-.758a13.878 13.878 0 0 1-1.808-.862c-.491-.287-.862-.632-1.114-1.035-.252-.411-.378-.933-.378-1.569 0-1.005.395-1.767 1.185-2.287.797-.526 1.849-.789 3.157-.789a8.56 8.56 0 0 1 1.961.215c.62.137 1.226.338 1.818.605l-.756 1.815a11.313 11.313 0 0 0-1.542-.554 5.521 5.521 0 0 0-1.563-.225c-.62 0-1.093.095-1.42.287-.32.191-.48.465-.48.82 0 .267.078.492.235.677.157.184.426.369.807.553.388.185.926.414 1.614.687.674.26 1.256.534 1.746.821.498.28.879.625 1.145 1.035.265.411.398.94.398 1.59zM229.851 115.257c.313 0 .623-.028.929-.082.307-.062.586-.133.838-.216v1.826c-.266.116-.61.215-1.032.297a6.891 6.891 0 0 1-1.317.123c-.641 0-1.216-.106-1.727-.318-.51-.219-.916-.591-1.215-1.117-.3-.527-.45-1.255-.45-2.185v-6.101h-1.542v-1.076l1.655-.851.786-2.431h1.512v2.523h3.238v1.835h-3.238v6.071c0 .574.143 1.001.429 1.281.286.281.664.421 1.134.421zM243.927 111.299c0 .943-.123 1.781-.368 2.512-.245.731-.603 1.35-1.073 1.856a4.72 4.72 0 0 1-1.695 1.148c-.661.26-1.407.39-2.237.39-.777 0-1.488-.13-2.135-.39a4.865 4.865 0 0 1-1.686-1.148c-.469-.506-.834-1.125-1.093-1.856-.258-.731-.388-1.569-.388-2.512 0-1.251.215-2.311.644-3.179.436-.875 1.055-1.541 1.859-1.999.803-.458 1.76-.687 2.87-.687 1.042 0 1.961.229 2.758.687.797.458 1.42 1.124 1.869 1.999.45.875.675 1.935.675 3.179zm-8.203 0c0 .827.099 1.534.296 2.122.205.588.518 1.039.94 1.354.422.308.967.461 1.635.461.667 0 1.212-.153 1.634-.461.422-.315.732-.766.929-1.354.198-.588.297-1.295.297-2.122s-.099-1.528-.297-2.102c-.197-.581-.507-1.022-.929-1.323-.422-.308-.971-.461-1.645-.461-.994 0-1.719.335-2.175 1.004-.457.67-.685 1.631-.685 2.882z" fill="#fff"/>
    <path d="m185.866 38.235 9.596 26.562 7.949-26.562h15.729v.57c-3.445 0-5.716.228-6.814.684-.379.152-.606.304-.682.456-.189.342-.283 1.026-.283 2.052v29.184c0 1.14.075 1.843.227 2.109.075.152.34.323.795.513.492.152 1.325.285 2.498.399 1.173.114 2.593.171 4.259.171V75h-21.861v-.627a37.7 37.7 0 0 0 3.747-.171c1.174-.114 1.969-.247 2.385-.399.454-.19.719-.361.795-.513.151-.304.227-1.007.227-2.109l-.057-31.008c0-.646-.075-.969-.227-.969-.151 0-.321.285-.511.855L193.247 75h-1.249l-12.265-34.998-.454-.855c-.114 0-.17.323-.17.969v23.883c0 4.218.548 7.011 1.646 8.379 1.136 1.33 3.256 1.995 6.36 1.995V75h-16.069v-.627c2.649 0 4.523-.684 5.621-2.052 1.098-1.368 1.647-3.686 1.647-6.954V47.754c0-3.344-.511-5.662-1.533-6.954-1.023-1.33-2.934-1.995-5.735-1.995v-.627l14.82.057z" fill="#EEA86C"/>
</svg>
